<?xml version="1.0" standalone="no"?><svg xmlns:xlink="http://www.w3.org/1999/xlink" xmlns="http://www.w3.org/2000/svg" viewBox="0 0 2500 1562.5119239310434" preserveAspectRatio="xMaxYMax slice"><g transform="scale(1.907828966948771)"><rect x="0" y="0" width="1310.4" height="819" fill="#111111"/><circle cx="40.949999999999996" cy="40.949999999999996" r="8.19" fill="#151515"/><circle cx="122.85" cy="40.949999999999996" r="8.19" fill="#6f5a0d"/><circle cx="204.75" cy="40.949999999999996" r="8.19" fill="#202020"/><circle cx="286.65" cy="40.949999999999996" r="8.19" fill="#362e0f"/><circle cx="368.55" cy="40.949999999999996" r="8.19" fill="#1f1f1f"/><circle cx="450.45" cy="40.949999999999996" r="8.19" fill="#6e5a0d"/><circle cx="532.35" cy="40.949999999999996" r="8.19" fill="#191919"/><circle cx="614.25" cy="40.949999999999996" r="8.19" fill="#3f350f"/><circle cx="696.1500000000001" cy="40.949999999999996" r="8.19" fill="#332b0f"/><circle cx="778.0500000000001" cy="40.949999999999996" r="8.19" fill="#191711"/><circle cx="859.95" cy="40.949999999999996" r="8.19" fill="#6f5a0d"/><circle cx="941.85" cy="40.949999999999996" r="8.19" fill="#1e1e1e"/><circle cx="1023.75" cy="40.949999999999996" r="8.19" fill="#6a560d"/><circle cx="1105.65" cy="40.949999999999996" r="8.19" fill="#1d1d1d"/><circle cx="1187.55" cy="40.949999999999996" r="8.19" fill="#171611"/><circle cx="1269.45" cy="40.949999999999996" r="8.19" fill="#191919"/><circle cx="40.949999999999996" cy="122.85" r="8.19" fill="#282310"/><circle cx="122.85" cy="122.85" r="8.19" fill="#43380f"/><circle cx="204.75" cy="122.85" r="8.19" fill="#7e660c"/><circle cx="286.65" cy="122.85" r="8.19" fill="#141411"/><circle cx="368.55" cy="122.85" r="8.19" fill="#50420e"/><circle cx="450.45" cy="122.85" r="8.19" fill="#212121"/><circle cx="532.35" cy="122.85" r="8.19" fill="#171717"/><circle cx="614.25" cy="122.85" r="8.19" fill="#1e1e1e"/><circle cx="696.1500000000001" cy="122.85" r="8.19" fill="#52440e"/><circle cx="778.0500000000001" cy="122.85" r="8.19" fill="#141414"/><circle cx="859.95" cy="122.85" r="8.19" fill="#151515"/><circle cx="941.85" cy="122.85" r="8.19" fill="#121212"/><circle cx="1023.75" cy="122.85" r="8.19" fill="#202020"/><circle cx="1105.65" cy="122.85" r="8.19" fill="#41370f"/><circle cx="1187.55" cy="122.85" r="8.19" fill="#41360f"/><circle cx="1269.45" cy="122.85" r="8.19" fill="#79620c"/><circle cx="40.949999999999996" cy="204.75" r="8.19" fill="#1f1f1f"/><circle cx="122.85" cy="204.75" r="8.19" fill="#1e1e1e"/><circle cx="204.75" cy="204.75" r="8.19" fill="#181818"/><circle cx="286.65" cy="204.75" r="8.19" fill="#5a4a0e"/><circle cx="368.55" cy="204.75" r="8.19" fill="#202020"/><circle cx="450.45" cy="204.75" r="8.19" fill="#352d0f"/><circle cx="532.35" cy="204.75" r="8.19" fill="#1b1b1b"/><circle cx="614.25" cy="204.75" r="8.19" fill="#171611"/><circle cx="696.1500000000001" cy="204.75" r="8.19" fill="#1d1d1d"/><circle cx="778.0500000000001" cy="204.75" r="8.19" fill="#141414"/><circle cx="859.95" cy="204.75" r="8.19" fill="#111111"/><circle cx="941.85" cy="204.75" r="8.19" fill="#121212"/><circle cx="1023.75" cy="204.75" r="8.19" fill="#64520d"/><circle cx="1105.65" cy="204.75" r="8.19" fill="#57470e"/><circle cx="1187.55" cy="204.75" r="8.19" fill="#1a1a1a"/><circle cx="1269.45" cy="204.75" r="8.19" fill="#1e1e1e"/><circle cx="40.949999999999996" cy="286.65" r="8.19" fill="#1d1a10"/><circle cx="122.85" cy="286.65" r="8.19" fill="#6e5a0d"/><circle cx="204.75" cy="286.65" r="8.19" fill="#171717"/><circle cx="286.65" cy="286.65" r="8.19" fill="#53440e"/><circle cx="368.55" cy="286.65" r="8.19" fill="#7a630c"/><circle cx="450.45" cy="286.65" r="8.19" fill="#202020"/><circle cx="532.35" cy="286.65" r="8.19" fill="#131313"/><circle cx="614.25" cy="286.65" r="8.19" fill="#222222"/><circle cx="696.1500000000001" cy="286.65" r="8.19" fill="#1b1b1b"/><circle cx="778.0500000000001" cy="286.65" r="8.19" fill="#202020"/><circle cx="859.95" cy="286.65" r="8.19" fill="#171717"/><circle cx="941.85" cy="286.65" r="8.19" fill="#181818"/><circle cx="1023.75" cy="286.65" r="8.19" fill="#121212"/><circle cx="1105.65" cy="286.65" r="8.19" fill="#1e1e1e"/><circle cx="1187.55" cy="286.65" r="8.19" fill="#65530d"/><circle cx="1269.45" cy="286.65" r="8.19" fill="#161616"/><circle cx="40.949999999999996" cy="368.55" r="8.19" fill="#5d4c0e"/><circle cx="122.85" cy="368.55" r="8.19" fill="#372f0f"/><circle cx="204.75" cy="368.55" r="8.19" fill="#181818"/><circle cx="286.65" cy="368.55" r="8.19" fill="#1b1b1b"/><circle cx="368.55" cy="368.55" r="8.19" fill="#161616"/><circle cx="450.45" cy="368.55" r="8.19" fill="#45390f"/><circle cx="532.35" cy="368.55" r="8.19" fill="#79620c"/><circle cx="614.25" cy="368.55" r="8.19" fill="#3f350f"/><circle cx="696.1500000000001" cy="368.55" r="8.19" fill="#121212"/><circle cx="778.0500000000001" cy="368.55" r="8.19" fill="#1f1c10"/><circle cx="859.95" cy="368.55" r="8.19" fill="#1c1c1c"/><circle cx="941.85" cy="368.55" r="8.19" fill="#181818"/><circle cx="1023.75" cy="368.55" r="8.19" fill="#1c1c1c"/><circle cx="1105.65" cy="368.55" r="8.19" fill="#202020"/><circle cx="1187.55" cy="368.55" r="8.19" fill="#1b1b1b"/><circle cx="1269.45" cy="368.55" r="8.19" fill="#332b0f"/><circle cx="40.949999999999996" cy="450.45" r="8.19" fill="#64520d"/><circle cx="122.85" cy="450.45" r="8.19" fill="#181818"/><circle cx="204.75" cy="450.45" r="8.19" fill="#7d650c"/><circle cx="286.65" cy="450.45" r="8.19" fill="#1d1d1d"/><circle cx="368.55" cy="450.45" r="8.19" fill="#151515"/><circle cx="450.45" cy="450.45" r="8.19" fill="#1d1d1d"/><circle cx="532.35" cy="450.45" r="8.19" fill="#1f1f1f"/><circle cx="614.25" cy="450.45" r="8.19" fill="#372f0f"/><circle cx="696.1500000000001" cy="450.45" r="8.19" fill="#705b0d"/><circle cx="778.0500000000001" cy="450.45" r="8.19" fill="#332c0f"/><circle cx="859.95" cy="450.45" r="8.19" fill="#1d1d1d"/><circle cx="941.85" cy="450.45" r="8.19" fill="#7c640c"/><circle cx="1023.75" cy="450.45" r="8.19" fill="#51430e"/><circle cx="1105.65" cy="450.45" r="8.19" fill="#181818"/><circle cx="1187.55" cy="450.45" r="8.19" fill="#79620c"/><circle cx="1269.45" cy="450.45" r="8.19" fill="#1f1c10"/><circle cx="40.949999999999996" cy="532.35" r="8.19" fill="#191711"/><circle cx="122.85" cy="532.35" r="8.19" fill="#64520d"/><circle cx="204.75" cy="532.35" r="8.19" fill="#2d2710"/><circle cx="286.65" cy="532.35" r="8.19" fill="#292410"/><circle cx="368.55" cy="532.35" r="8.19" fill="#1e1e1e"/><circle cx="450.45" cy="532.35" r="8.19" fill="#3a310f"/><circle cx="532.35" cy="532.35" r="8.19" fill="#191919"/><circle cx="614.25" cy="532.35" r="8.19" fill="#1a1a1a"/><circle cx="696.1500000000001" cy="532.35" r="8.19" fill="#1b1911"/><circle cx="778.0500000000001" cy="532.35" r="8.19" fill="#151515"/><circle cx="859.95" cy="532.35" r="8.19" fill="#141414"/><circle cx="941.85" cy="532.35" r="8.19" fill="#191919"/><circle cx="1023.75" cy="532.35" r="8.19" fill="#262110"/><circle cx="1105.65" cy="532.35" r="8.19" fill="#1c1c1c"/><circle cx="1187.55" cy="532.35" r="8.19" fill="#272210"/><circle cx="1269.45" cy="532.35" r="8.19" fill="#1c1c1c"/><circle cx="40.949999999999996" cy="614.25" r="8.19" fill="#141414"/><circle cx="122.85" cy="614.25" r="8.19" fill="#755f0c"/><circle cx="204.75" cy="614.25" r="8.19" fill="#1f1f1f"/><circle cx="286.65" cy="614.25" r="8.19" fill="#2e2810"/><circle cx="368.55" cy="614.25" r="8.19" fill="#171717"/><circle cx="450.45" cy="614.25" r="8.19" fill="#342c0f"/><circle cx="532.35" cy="614.25" r="8.19" fill="#59490e"/><circle cx="614.25" cy="614.25" r="8.19" fill="#202020"/><circle cx="696.1500000000001" cy="614.25" r="8.19" fill="#121212"/><circle cx="778.0500000000001" cy="614.25" r="8.19" fill="#141414"/><circle cx="859.95" cy="614.25" r="8.19" fill="#50420e"/><circle cx="941.85" cy="614.25" r="8.19" fill="#715c0d"/><circle cx="1023.75" cy="614.25" r="8.19" fill="#52440e"/><circle cx="1105.65" cy="614.25" r="8.19" fill="#1b1b1b"/><circle cx="1187.55" cy="614.25" r="8.19" fill="#151515"/><circle cx="1269.45" cy="614.25" r="8.19" fill="#191919"/><circle cx="40.949999999999996" cy="696.1500000000001" r="8.19" fill="#131313"/><circle cx="122.85" cy="696.1500000000001" r="8.19" fill="#121212"/><circle cx="204.75" cy="696.1500000000001" r="8.19" fill="#67540d"/><circle cx="286.65" cy="696.1500000000001" r="8.19" fill="#372f0f"/><circle cx="368.55" cy="696.1500000000001" r="8.19" fill="#181818"/><circle cx="450.45" cy="696.1500000000001" r="8.19" fill="#171717"/><circle cx="532.35" cy="696.1500000000001" r="8.19" fill="#1b1b1b"/><circle cx="614.25" cy="696.1500000000001" r="8.19" fill="#121211"/><circle cx="696.1500000000001" cy="696.1500000000001" r="8.19" fill="#161616"/><circle cx="778.0500000000001" cy="696.1500000000001" r="8.19" fill="#1b1b1b"/><circle cx="859.95" cy="696.1500000000001" r="8.19" fill="#40360f"/><circle cx="941.85" cy="696.1500000000001" r="8.19" fill="#1b1b1b"/><circle cx="1023.75" cy="696.1500000000001" r="8.19" fill="#121212"/><circle cx="1105.65" cy="696.1500000000001" r="8.19" fill="#4a3d0e"/><circle cx="1187.55" cy="696.1500000000001" r="8.19" fill="#1b1b1b"/><circle cx="1269.45" cy="696.1500000000001" r="8.19" fill="#7a630c"/><circle cx="40.949999999999996" cy="778.0500000000001" r="8.19" fill="#131313"/><circle cx="122.85" cy="778.0500000000001" r="8.19" fill="#1c1c1c"/><circle cx="204.75" cy="778.0500000000001" r="8.19" fill="#1c1c1c"/><circle cx="286.65" cy="778.0500000000001" r="8.19" fill="#52430e"/><circle cx="368.55" cy="778.0500000000001" r="8.19" fill="#171611"/><circle cx="450.45" cy="778.0500000000001" r="8.19" fill="#4b3e0e"/><circle cx="532.35" cy="778.0500000000001" r="8.19" fill="#705b0d"/><circle cx="614.25" cy="778.0500000000001" r="8.19" fill="#212121"/><circle cx="696.1500000000001" cy="778.0500000000001" r="8.19" fill="#4c3f0e"/><circle cx="778.0500000000001" cy="778.0500000000001" r="8.19" fill="#212121"/><circle cx="859.95" cy="778.0500000000001" r="8.19" fill="#41360f"/><circle cx="941.85" cy="778.0500000000001" r="8.19" fill="#4b3e0e"/><circle cx="1023.75" cy="778.0500000000001" r="8.19" fill="#161511"/><circle cx="1105.65" cy="778.0500000000001" r="8.19" fill="#161616"/><circle cx="1187.55" cy="778.0500000000001" r="8.19" fill="#5c4b0e"/><circle cx="1269.45" cy="778.0500000000001" r="8.19" fill="#151515"/></g></svg>