<?xml version="1.0" standalone="no"?><svg xmlns:xlink="http://www.w3.org/1999/xlink" xmlns="http://www.w3.org/2000/svg" viewBox="0 0 1000 625.0047695724173" preserveAspectRatio="xMaxYMax slice"><g transform="scale(0.7631315867795083)"><rect x="0" y="0" width="1310.4" height="819" fill="#111111"/><polygon points="32.76,32.76 49.14,32.76 49.14,49.14" fill="#1c1c1c"/><rect x="114.66" y="32.76" width="16.38" height="16.38" fill="#151515"/><rect x="196.56" y="32.76" width="16.38" height="16.38" fill="#131313"/><rect x="278.46" y="32.76" width="16.38" height="16.38" fill="#121212"/><rect x="360.36" y="32.760000000000005" width="16.379999999999995" height="16.379999999999995" fill="#111111"/><path d="M 360.36 40.949999999999996 A 8.19 8.19 0 0 1  368.55 32.76 L 368.55 40.949999999999996" fill="#1e1e1e"/><path d="M 368.55 32.76 A 8.19 8.19 0 0 1 376.74 40.949999999999996 L 368.55 40.949999999999996" fill="#1f1f1f"/><path d="M 360.36 40.95 A 8.19 8.19 0 0 0 368.55 49.14 L 368.55 40.95" fill="#5f4e0d"/><path d="M 368.55 49.14 A 8.19 8.19 0 0 0 376.74 40.95 L 368.55 40.95" fill="#212121"/><rect x="442.26" y="32.760000000000005" width="16.379999999999995" height="16.379999999999995" fill="#111111"/><path d="M 442.26 32.76 A 8.19 8.19 0 0 0 450.45 40.949999999999996 L 450.45 32.76" fill="#121212"/><path d="M 450.45 40.949999999999996 A 8.19 8.19 0 0 0 458.64 32.76 L 450.45 32.76" fill="#292410"/><path d="M 442.26 49.14 A 8.19 8.19 0 0 1  450.45 40.95 L 450.45 49.14" fill="#191919"/><path d="M 450.45 40.95 A 8.19 8.19 0 0 1 458.64 49.14 L 450.45 49.14" fill="#141414"/><rect x="524.16" y="32.76" width="16.38" height="16.38" fill="#705b0d"/><rect x="606.06" y="32.76" width="16.38" height="16.38" fill="#57480e"/><path d="M 687.96 49.14 A 16.38 16.38 0 0 1  704.34 32.76 L 687.96 49.14 A 16.38 16.38 0 0 0 704.34 32.76" fill="#121212"/><rect x="769.86" y="32.760000000000005" width="16.379999999999995" height="16.379999999999995" fill="#111111"/><path d="M 769.86 40.949999999999996 A 8.19 8.19 0 0 1 778.0500000000001 32.76 L 778.0500000000001 34.8075 A 6.1425 6.1425 0 0 0 771.9075 40.949999999999996" fill="#111111"/><path d="M 778.05 32.76 A 8.19 8.19 0 0 1 786.24 40.949999999999996 L 784.1925 40.949999999999996 A 6.1425 6.1425 0 0 0 778.05 34.8075" fill="#1a1a1a"/><path d="M 769.86 40.95 A 8.19 8.19 0 0 0 778.0500000000001 49.14 L 778.0500000000001 47.0925 A 6.1425 6.1425 0 0 1 771.9075 40.95" fill="#151515"/><path d="M 778.05 49.14 A 8.19 8.19 0 0 0 786.24 40.95 L 784.1925 40.95 A 6.1425 6.1425 0 0 1 778.05 47.0925" fill="#7a630c"/><rect x="851.76" y="32.760000000000005" width="16.379999999999995" height="16.379999999999995" fill="#111111"/><path d="M 851.76 32.76 A 8.19 8.19 0 0 0 859.95 40.949999999999996 L 859.95 32.76" fill="#62500d"/><path d="M 859.95 40.949999999999996 A 8.19 8.19 0 0 0 868.1400000000001 32.76 L 859.95 32.76" fill="#1e1e1e"/><path d="M 851.76 49.14 A 8.19 8.19 0 0 1  859.95 40.95 L 859.95 49.14" fill="#2b2510"/><path d="M 859.95 40.95 A 8.19 8.19 0 0 1 868.1400000000001 49.14 L 859.95 49.14" fill="#121212"/><path d="M 933.66 49.14 A 16.38 16.38 0 0 1  950.04 32.76 L 950.04 49.14" fill="#1f1f1f"/><polygon points="1031.94,32.76 1031.94,49.14 1015.56,49.14" fill="#5f4e0d"/><rect x="1097.46" y="32.760000000000005" width="16.379999999999995" height="16.379999999999995" fill="#111111"/><path d="M 1097.46 32.76 A 8.19 8.19 0 0 0 1105.65 40.949999999999996 L 1105.65 32.76" fill="#7a630c"/><path d="M 1105.65 40.949999999999996 A 8.19 8.19 0 0 0 1113.8400000000001 32.76 L 1105.65 32.76" fill="#715c0d"/><path d="M 1097.46 49.14 A 8.19 8.19 0 0 1  1105.65 40.95 L 1105.65 49.14" fill="#221f10"/><path d="M 1105.65 40.95 A 8.19 8.19 0 0 1 1113.8400000000001 49.14 L 1105.65 49.14" fill="#161616"/><rect x="1179.3600000000001" y="32.760000000000005" width="16.379999999999995" height="16.379999999999995" fill="#111111"/><path d="M 1179.36 32.76 A 8.19 8.19 0 0 0 1187.55 40.949999999999996 L 1187.55 32.76" fill="#52430e"/><path d="M 1187.55 40.949999999999996 A 8.19 8.19 0 0 0 1195.74 32.76 L 1187.55 32.76" fill="#1c1c1c"/><path d="M 1179.36 49.14 A 8.19 8.19 0 0 1  1187.55 40.95 L 1187.55 49.14" fill="#121212"/><path d="M 1187.55 40.95 A 8.19 8.19 0 0 1 1195.74 49.14 L 1187.55 49.14" fill="#3c330f"/><rect x="1261.26" y="32.76" width="16.38" height="16.38" fill="#212121"/><rect x="32.76" y="114.66" width="16.38" height="16.38" fill="#463a0f"/><rect x="114.66" y="114.66" width="16.38" height="16.38" fill="#1c1c1c"/><rect x="196.56" y="114.66000000000001" width="16.379999999999995" height="16.379999999999995" fill="#111111"/><path d="M 196.56 122.85 A 8.19 8.19 0 0 1  204.75 114.66 L 204.75 122.85" fill="#5e4d0d"/><path d="M 204.75 114.66 A 8.19 8.19 0 0 1 212.94 122.85 L 204.75 122.85" fill="#51430e"/><path d="M 196.56 122.85 A 8.19 8.19 0 0 0 204.75 131.04 L 204.75 122.85" fill="#171611"/><path d="M 204.75 131.04 A 8.19 8.19 0 0 0 212.94 122.85 L 204.75 122.85" fill="#171611"/><polygon points="278.46,114.66 294.84,114.66 278.46,131.04" fill="#151515"/><rect x="360.36" y="114.66" width="16.38" height="16.38" fill="#231f10"/><rect x="442.26" y="114.66" width="16.38" height="16.38" fill="#1f1f1f"/><rect x="524.1600000000001" y="114.66000000000001" width="16.379999999999995" height="16.379999999999995" fill="#111111"/><path d="M 524.16 114.66 A 8.19 8.19 0 0 0 532.35 122.85 L 532.35 114.66" fill="#222222"/><path d="M 532.35 122.85 A 8.19 8.19 0 0 0 540.5400000000001 114.66 L 532.35 114.66" fill="#212121"/><path d="M 524.16 131.04 A 8.19 8.19 0 0 1  532.35 122.85 L 532.35 131.04" fill="#1c1c1c"/><path d="M 532.35 122.85 A 8.19 8.19 0 0 1 540.5400000000001 131.04 L 532.35 131.04" fill="#161616"/><polygon points="606.06,114.66 622.4399999999999,131.04 606.06,131.04" fill="#121212"/><path d="M 687.96 114.66 A 16.38 16.38 0 0 0 704.34 131.04 L 704.34 114.66" fill="#1a1a1a"/><rect x="769.86" y="114.66000000000001" width="16.379999999999995" height="16.379999999999995" fill="#111111"/><path d="M 769.86 122.85 A 8.19 8.19 0 0 1  778.0500000000001 114.66 L 778.0500000000001 122.85" fill="#252010"/><path d="M 778.05 114.66 A 8.19 8.19 0 0 1 786.24 122.85 L 778.05 122.85" fill="#171717"/><path d="M 769.86 122.85 A 8.19 8.19 0 0 0 778.0500000000001 131.04 L 778.0500000000001 122.85" fill="#171611"/><path d="M 778.05 131.04 A 8.19 8.19 0 0 0 786.24 122.85 L 778.05 122.85" fill="#1a1a1a"/><rect x="851.76" y="114.66" width="16.38" height="16.38" fill="#171717"/><rect x="933.6600000000001" y="114.66000000000001" width="16.379999999999995" height="16.379999999999995" fill="#111111"/><path d="M 933.66 114.66 A 8.19 8.19 0 0 1 941.85 122.85 L 933.66 122.85" fill="#1c1c1c"/><path d="M 941.85 122.85 A 8.19 8.19 0 0 1  950.0400000000001 114.66 L 950.0400000000001 122.85" fill="#3d340f"/><path d="M 933.66 131.04 A 8.19 8.19 0 0 0 941.85 122.85 L 933.66 122.85" fill="#171717"/><path d="M 941.85 122.85 A 8.19 8.19 0 0 0 950.0400000000001 131.04 L 950.0400000000001 122.85" fill="#6c580d"/><path d="M 1015.56 131.04 A 16.38 16.38 0 0 1  1031.94 114.66 L 1031.94 131.04" fill="#1b1b1b"/><rect x="1097.46" y="114.66000000000001" width="16.379999999999995" height="16.379999999999995" fill="#111111"/><path d="M 1097.46 122.85 A 8.19 8.19 0 0 0 1105.65 114.66 L 1097.46 114.66" fill="#4e400e"/><path d="M 1105.65 114.66 A 8.19 8.19 0 0 0 1113.8400000000001 122.85 L 1113.8400000000001 114.66" fill="#5e4d0d"/><path d="M 1097.46 122.85 A 8.19 8.19 0 0 1 1105.65 131.04 L 1097.46 131.04" fill="#272210"/><path d="M 1105.65 131.04 A 8.19 8.19 0 0 1  1113.8400000000001 122.85 L 1113.8400000000001 131.04" fill="#181818"/><rect x="1179.3600000000001" y="114.66000000000001" width="16.379999999999995" height="16.379999999999995" fill="#111111"/><polygon points="1187.55,114.66 1187.55,122.85 1179.36,122.85" fill="#131313"/><polygon points="1187.55,114.66 1195.74,122.85 1187.55,122.85" fill="#62500d"/><polygon points="1179.36,122.85 1187.55,122.85 1187.55,131.04" fill="#55460e"/><polygon points="1187.55,122.85 1195.74,122.85 1187.55,131.04" fill="#171717"/><path d="M 1261.26 114.66 A 16.38 16.38 0 0 1  1277.64 131.04 L 1261.26 114.66 A 16.38 16.38 0 0 0 1277.64 131.04" fill="#4b3e0e"/><rect x="32.76" y="196.56" width="16.38" height="16.38" fill="#76600c"/><path d="M 114.66 212.94 A 16.38 16.38 0 0 1  131.04 196.56 L 131.04 212.94" fill="#614f0d"/><polygon points="212.94,196.56 212.94,212.94 196.56,212.94" fill="#352d0f"/><rect x="278.46" y="196.56" width="16.38" height="16.38" fill="#40350f"/><rect x="360.36" y="196.56" width="16.379999999999995" height="16.379999999999995" fill="#111111"/><path d="M 360.36 204.75 A 8.19 8.19 0 0 0 368.55 196.56 L 360.36 196.56" fill="#151515"/><path d="M 368.55 196.56 A 8.19 8.19 0 0 0 376.74 204.75 L 376.74 196.56" fill="#5a4a0e"/><path d="M 360.36 204.75 A 8.19 8.19 0 0 1 368.55 212.94 L 360.36 212.94" fill="#202020"/><path d="M 368.55 212.94 A 8.19 8.19 0 0 1  376.74 204.75 L 376.74 212.94" fill="#6b570d"/><path d="M 442.26 196.56 A 16.38 16.38 0 0 1 458.64 212.94 L 442.26 212.94" fill="#151411"/><polygon points="540.54,196.56 540.54,212.94 524.16,212.94" fill="#212121"/><polygon points="606.06,196.56 622.4399999999999,196.56 606.06,212.94" fill="#181818"/><rect x="687.96" y="196.56" width="16.38" height="16.38" fill="#67540d"/><path d="M 769.86 196.56 A 16.38 16.38 0 0 0 786.24 212.94 L 786.24 196.56" fill="#5a4a0e"/><rect x="851.76" y="196.56" width="16.379999999999995" height="16.379999999999995" fill="#111111"/><path d="M 851.76 204.75 A 8.19 8.19 0 0 1  859.95 196.56 L 859.95 204.75" fill="#171717"/><path d="M 859.95 196.56 A 8.19 8.19 0 0 1 868.1400000000001 204.75 L 859.95 204.75" fill="#332c0f"/><path d="M 851.76 204.75 A 8.19 8.19 0 0 0 859.95 212.94 L 859.95 204.75" fill="#59490e"/><path d="M 859.95 212.94 A 8.19 8.19 0 0 0 868.1400000000001 204.75 L 859.95 204.75" fill="#67540d"/><path d="M 933.66 212.94 A 16.38 16.38 0 0 1  950.04 196.56 L 950.04 212.94" fill="#171717"/><polygon points="1015.56,196.56 1031.94,196.56 1031.94,212.94" fill="#161616"/><rect x="1097.46" y="196.56" width="16.379999999999995" height="16.379999999999995" fill="#111111"/><path d="M 1097.46 196.56 A 8.19 8.19 0 0 1 1105.65 204.75 L 1097.46 204.75" fill="#483c0e"/><path d="M 1105.65 204.75 A 8.19 8.19 0 0 1  1113.8400000000001 196.56 L 1113.8400000000001 204.75" fill="#1a1a1a"/><path d="M 1097.46 212.94 A 8.19 8.19 0 0 0 1105.65 204.75 L 1097.46 204.75" fill="#151515"/><path d="M 1105.65 204.75 A 8.19 8.19 0 0 0 1113.8400000000001 212.94 L 1113.8400000000001 204.75" fill="#5f4e0d"/><rect x="1179.3600000000001" y="196.56" width="16.379999999999995" height="16.379999999999995" fill="#111111"/><path d="M 1179.36 196.56 A 8.19 8.19 0 0 1 1187.55 204.75 L 1179.36 204.75" fill="#171717"/><path d="M 1187.55 204.75 A 8.19 8.19 0 0 1  1195.74 196.56 L 1195.74 204.75" fill="#171717"/><path d="M 1179.36 212.94 A 8.19 8.19 0 0 0 1187.55 204.75 L 1179.36 204.75" fill="#2c2610"/><path d="M 1187.55 204.75 A 8.19 8.19 0 0 0 1195.74 212.94 L 1195.74 204.75" fill="#1d1d1d"/><rect x="1261.26" y="196.56" width="16.379999999999995" height="16.379999999999995" fill="#111111"/><path d="M 1261.26 196.56 A 8.19 8.19 0 0 1 1269.45 204.75 L 1261.26 204.75" fill="#1b1b1b"/><path d="M 1269.45 204.75 A 8.19 8.19 0 0 1  1277.64 196.56 L 1277.64 204.75" fill="#483c0e"/><path d="M 1261.26 212.94 A 8.19 8.19 0 0 0 1269.45 204.75 L 1261.26 204.75" fill="#755f0c"/><path d="M 1269.45 204.75 A 8.19 8.19 0 0 0 1277.64 212.94 L 1277.64 204.75" fill="#121212"/><rect x="32.76" y="278.46" width="16.38" height="16.38" fill="#68540d"/><polygon points="114.66,278.46 131.04,278.46 114.66,294.84" fill="#171717"/><rect x="196.56" y="278.46000000000004" width="16.379999999999995" height="16.379999999999995" fill="#111111"/><circle cx="200.655" cy="282.555" r="4.095" fill="#44390f"/><rect x="204.75" y="278.46" width="8.19" height="8.19" fill="#272210"/><circle cx="200.655" cy="290.745" r="4.095" fill="#64520d"/><rect x="204.75" y="286.65" width="8.19" height="8.19" fill="#141414"/><rect x="278.46000000000004" y="278.46000000000004" width="16.379999999999995" height="16.379999999999995" fill="#111111"/><polygon points="286.65,278.46 286.65,286.65 278.46,286.65" fill="#1e1e1e"/><polygon points="286.65,278.46 294.84,286.65 286.65,286.65" fill="#151515"/><polygon points="278.46,286.65 286.65,286.65 286.65,294.84" fill="#151515"/><polygon points="286.65,286.65 294.84,286.65 286.65,294.84" fill="#2b2510"/><path d="M 360.36 294.84 A 16.38 16.38 0 0 0 376.74 278.46 L 360.36 278.46" fill="#67540d"/><path d="M 442.26 294.84 A 16.38 16.38 0 0 1  458.64 278.46 L 442.26 294.84 A 16.38 16.38 0 0 0 458.64 278.46" fill="#151515"/><rect x="524.1600000000001" y="278.46000000000004" width="16.379999999999995" height="16.379999999999995" fill="#111111"/><polygon points="532.35,278.46 532.35,286.65 524.16,286.65" fill="#1d1d1d"/><polygon points="532.35,278.46 540.5400000000001,286.65 532.35,286.65" fill="#151515"/><polygon points="524.16,286.65 532.35,286.65 532.35,294.84" fill="#1a1811"/><polygon points="532.35,286.65 540.5400000000001,286.65 532.35,294.84" fill="#56470e"/><rect x="606.06" y="278.46" width="16.38" height="16.38" fill="#191919"/><path d="M 687.96 294.84 A 16.38 16.38 0 0 1  704.34 278.46 L 704.34 294.84" fill="#1b1b1b"/><rect x="769.86" y="278.46000000000004" width="16.379999999999995" height="16.379999999999995" fill="#111111"/><path d="M 769.86 278.46 A 8.19 8.19 0 0 1 778.0500000000001 286.65 L 769.86 286.65" fill="#6c580d"/><path d="M 778.05 286.65 A 8.19 8.19 0 0 1  786.24 278.46 L 786.24 286.65" fill="#171717"/><path d="M 769.86 294.84 A 8.19 8.19 0 0 0 778.0500000000001 286.65 L 769.86 286.65" fill="#1f1f1f"/><path d="M 778.05 286.65 A 8.19 8.19 0 0 0 786.24 294.84 L 786.24 286.65" fill="#76600c"/><rect x="851.76" y="278.46000000000004" width="16.379999999999995" height="16.379999999999995" fill="#111111"/><path d="M 851.76 286.65 A 8.19 8.19 0 0 1  859.95 278.46 L 859.95 286.65" fill="#131313"/><path d="M 859.95 278.46 A 8.19 8.19 0 0 1 868.1400000000001 286.65 L 859.95 286.65" fill="#151411"/><path d="M 851.76 286.65 A 8.19 8.19 0 0 0 859.95 294.84 L 859.95 286.65" fill="#151515"/><path d="M 859.95 294.84 A 8.19 8.19 0 0 0 868.1400000000001 286.65 L 859.95 286.65" fill="#131313"/><rect x="933.6600000000001" y="278.46000000000004" width="16.379999999999995" height="16.379999999999995" fill="#111111"/><path d="M 933.66 286.65 A 8.19 8.19 0 0 1  941.85 278.46 L 941.85 286.65" fill="#79620c"/><path d="M 941.85 278.46 A 8.19 8.19 0 0 1 950.0400000000001 286.65 L 941.85 286.65" fill="#171717"/><path d="M 933.66 286.65 A 8.19 8.19 0 0 0 941.85 294.84 L 941.85 286.65" fill="#342c0f"/><path d="M 941.85 294.84 A 8.19 8.19 0 0 0 950.0400000000001 286.65 L 941.85 286.65" fill="#202020"/><polygon points="1015.56,278.46 1031.94,278.46 1031.94,294.84" fill="#141414"/><polygon points="1097.46,278.46 1113.8400000000001,294.84 1097.46,294.84" fill="#131313"/><rect x="1179.36" y="278.46" width="16.38" height="16.38" fill="#151515"/><polygon points="1261.26,278.46 1277.64,294.84 1261.26,294.84" fill="#202020"/><rect x="32.760000000000005" y="360.36" width="16.379999999999995" height="16.379999999999995" fill="#111111"/><path d="M 32.76 368.55 A 8.19 8.19 0 0 1 40.949999999999996 360.36 L 40.949999999999996 362.4075 A 6.1425 6.1425 0 0 0 34.8075 368.55" fill="#4a3d0e"/><path d="M 40.95 360.36 A 8.19 8.19 0 0 1 49.14 368.55 L 47.0925 368.55 A 6.1425 6.1425 0 0 0 40.95 362.4075" fill="#493d0e"/><path d="M 32.76 368.55 A 8.19 8.19 0 0 0 40.949999999999996 376.74 L 40.949999999999996 374.6925 A 6.1425 6.1425 0 0 1 34.8075 368.55" fill="#5b4b0e"/><path d="M 40.95 376.74 A 8.19 8.19 0 0 0 49.14 368.55 L 47.0925 368.55 A 6.1425 6.1425 0 0 1 40.95 374.6925" fill="#3a310f"/><rect x="114.66000000000001" y="360.36" width="16.379999999999995" height="16.379999999999995" fill="#111111"/><path d="M 114.66 368.55 A 8.19 8.19 0 0 1 122.85 360.36 L 122.85 362.4075 A 6.1425 6.1425 0 0 0 116.7075 368.55" fill="#4d400e"/><path d="M 122.85 360.36 A 8.19 8.19 0 0 1 131.04 368.55 L 128.9925 368.55 A 6.1425 6.1425 0 0 0 122.85 362.4075" fill="#79620c"/><path d="M 114.66 368.55 A 8.19 8.19 0 0 0 122.85 376.74 L 122.85 374.6925 A 6.1425 6.1425 0 0 1 116.7075 368.55" fill="#3c330f"/><path d="M 122.85 376.74 A 8.19 8.19 0 0 0 131.04 368.55 L 128.9925 368.55 A 6.1425 6.1425 0 0 1 122.85 374.6925" fill="#151515"/><rect x="196.56" y="360.36" width="16.38" height="16.38" fill="#141414"/><rect x="278.46000000000004" y="360.36" width="16.379999999999995" height="16.379999999999995" fill="#111111"/><path d="M 278.46 368.55 A 8.19 8.19 0 0 1 286.65 360.36 L 286.65 362.4075 A 6.1425 6.1425 0 0 0 280.5075 368.55" fill="#161616"/><path d="M 286.65 360.36 A 8.19 8.19 0 0 1 294.84 368.55 L 292.79249999999996 368.55 A 6.1425 6.1425 0 0 0 286.65 362.4075" fill="#171717"/><path d="M 278.46 368.55 A 8.19 8.19 0 0 0 286.65 376.74 L 286.65 374.6925 A 6.1425 6.1425 0 0 1 280.5075 368.55" fill="#161616"/><path d="M 286.65 376.74 A 8.19 8.19 0 0 0 294.84 368.55 L 292.79249999999996 368.55 A 6.1425 6.1425 0 0 1 286.65 374.6925" fill="#4c3f0e"/><rect x="360.36" y="360.36" width="16.379999999999995" height="16.379999999999995" fill="#111111"/><polygon points="368.55,360.36 368.55,368.55 360.36,368.55" fill="#151411"/><polygon points="368.55,360.36 376.74,368.55 368.55,368.55" fill="#62500d"/><polygon points="360.36,368.55 368.55,368.55 368.55,376.74" fill="#7a630c"/><polygon points="368.55,368.55 376.74,368.55 368.55,376.74" fill="#191919"/><rect x="442.26" y="360.36" width="16.379999999999995" height="16.379999999999995" fill="#111111"/><polygon points="450.45,360.36 450.45,368.55 442.26,368.55" fill="#4a3d0e"/><polygon points="450.45,360.36 458.64,368.55 450.45,368.55" fill="#212121"/><polygon points="442.26,368.55 450.45,368.55 450.45,376.74" fill="#1b1911"/><polygon points="450.45,368.55 458.64,368.55 450.45,376.74" fill="#212121"/><rect x="524.1600000000001" y="360.36" width="16.379999999999995" height="16.379999999999995" fill="#111111"/><path d="M 524.16 368.55 A 8.19 8.19 0 0 0 532.35 360.36 L 524.16 360.36" fill="#242010"/><path d="M 532.35 360.36 A 8.19 8.19 0 0 0 540.5400000000001 368.55 L 540.5400000000001 360.36" fill="#2a2510"/><path d="M 524.16 368.55 A 8.19 8.19 0 0 1 532.35 376.74 L 524.16 376.74" fill="#755f0c"/><path d="M 532.35 376.74 A 8.19 8.19 0 0 1  540.5400000000001 368.55 L 540.5400000000001 376.74" fill="#1e1e1e"/><rect x="606.06" y="360.36" width="16.38" height="16.38" fill="#66530d"/><rect x="687.96" y="360.36" width="16.38" height="16.38" fill="#202020"/><rect x="769.86" y="360.36" width="16.379999999999995" height="16.379999999999995" fill="#111111"/><path d="M 769.86 360.36 A 8.19 8.19 0 0 0 778.0500000000001 368.55 L 778.0500000000001 360.36" fill="#5b4a0e"/><path d="M 778.05 368.55 A 8.19 8.19 0 0 0 786.24 360.36 L 778.05 360.36" fill="#1a1a1a"/><path d="M 769.86 376.74 A 8.19 8.19 0 0 1  778.0500000000001 368.55 L 778.0500000000001 376.74" fill="#171717"/><path d="M 778.05 368.55 A 8.19 8.19 0 0 1 786.24 376.74 L 778.05 376.74" fill="#1d1d1d"/><rect x="851.76" y="360.36" width="16.379999999999995" height="16.379999999999995" fill="#111111"/><path d="M 851.76 368.55 A 8.19 8.19 0 0 1 859.95 360.36 L 859.95 362.4075 A 6.1425 6.1425 0 0 0 853.8075 368.55" fill="#1d1d1d"/><path d="M 859.95 360.36 A 8.19 8.19 0 0 1 868.1400000000001 368.55 L 866.0925000000001 368.55 A 6.1425 6.1425 0 0 0 859.95 362.4075" fill="#202020"/><path d="M 851.76 368.55 A 8.19 8.19 0 0 0 859.95 376.74 L 859.95 374.6925 A 6.1425 6.1425 0 0 1 853.8075 368.55" fill="#1e1b10"/><path d="M 859.95 376.74 A 8.19 8.19 0 0 0 868.1400000000001 368.55 L 866.0925000000001 368.55 A 6.1425 6.1425 0 0 1 859.95 374.6925" fill="#171717"/><rect x="933.6600000000001" y="360.36" width="16.379999999999995" height="16.379999999999995" fill="#111111"/><circle cx="937.755" cy="364.45500000000004" r="4.095" fill="#6b570d"/><rect x="941.85" y="360.36" width="8.19" height="8.19" fill="#604e0d"/><circle cx="937.755" cy="372.64500000000004" r="4.095" fill="#141414"/><rect x="941.85" y="368.55" width="8.19" height="8.19" fill="#77610c"/><rect x="1015.5600000000001" y="360.36" width="16.379999999999995" height="16.379999999999995" fill="#111111"/><path d="M 1015.56 368.55 A 8.19 8.19 0 0 1  1023.75 360.36 L 1023.75 368.55" fill="#231f10"/><path d="M 1023.75 360.36 A 8.19 8.19 0 0 1 1031.94 368.55 L 1023.75 368.55" fill="#202020"/><path d="M 1015.56 368.55 A 8.19 8.19 0 0 0 1023.75 376.74 L 1023.75 368.55" fill="#1d1d1d"/><path d="M 1023.75 376.74 A 8.19 8.19 0 0 0 1031.94 368.55 L 1023.75 368.55" fill="#66530d"/><rect x="1097.46" y="360.36" width="16.379999999999995" height="16.379999999999995" fill="#111111"/><path d="M 1097.46 368.55 A 8.19 8.19 0 0 1 1105.65 360.36 L 1105.65 362.4075 A 6.1425 6.1425 0 0 0 1099.5075 368.55" fill="#59490e"/><path d="M 1105.65 360.36 A 8.19 8.19 0 0 1 1113.8400000000001 368.55 L 1111.7925 368.55 A 6.1425 6.1425 0 0 0 1105.65 362.4075" fill="#231f10"/><path d="M 1097.46 368.55 A 8.19 8.19 0 0 0 1105.65 376.74 L 1105.65 374.6925 A 6.1425 6.1425 0 0 1 1099.5075 368.55" fill="#222222"/><path d="M 1105.65 376.74 A 8.19 8.19 0 0 0 1113.8400000000001 368.55 L 1111.7925 368.55 A 6.1425 6.1425 0 0 1 1105.65 374.6925" fill="#6a560d"/><polygon points="1179.36,360.36 1195.74,360.36 1195.74,376.74" fill="#141414"/><rect x="1261.26" y="360.36" width="16.379999999999995" height="16.379999999999995" fill="#111111"/><circle cx="1265.355" cy="364.45500000000004" r="4.095" fill="#1b1b1b"/><rect x="1269.45" y="360.36" width="8.19" height="8.19" fill="#372f0f"/><circle cx="1265.355" cy="372.64500000000004" r="4.095" fill="#191919"/><rect x="1269.45" y="368.55" width="8.19" height="8.19" fill="#202020"/><rect x="32.760000000000005" y="442.26" width="16.379999999999995" height="16.379999999999995" fill="#111111"/><path d="M 32.76 450.45 A 8.19 8.19 0 0 1 40.949999999999996 442.26 L 40.949999999999996 444.3075 A 6.1425 6.1425 0 0 0 34.8075 450.45" fill="#5e4d0d"/><path d="M 40.95 442.26 A 8.19 8.19 0 0 1 49.14 450.45 L 47.0925 450.45 A 6.1425 6.1425 0 0 0 40.95 444.3075" fill="#191919"/><path d="M 32.76 450.45 A 8.19 8.19 0 0 0 40.949999999999996 458.64 L 40.949999999999996 456.5925 A 6.1425 6.1425 0 0 1 34.8075 450.45" fill="#191919"/><path d="M 40.95 458.64 A 8.19 8.19 0 0 0 49.14 450.45 L 47.0925 450.45 A 6.1425 6.1425 0 0 1 40.95 456.5925" fill="#212121"/><rect x="114.66" y="442.26" width="16.38" height="16.38" fill="#55460e"/><rect x="196.56" y="442.26" width="16.38" height="16.38" fill="#1f1c10"/><rect x="278.46" y="442.26" width="16.38" height="16.38" fill="#1b1b1b"/><rect x="360.36" y="442.26" width="16.379999999999995" height="16.379999999999995" fill="#111111"/><path d="M 360.36 450.45 A 8.19 8.19 0 0 0 368.55 442.26 L 360.36 442.26" fill="#231f10"/><path d="M 368.55 442.26 A 8.19 8.19 0 0 0 376.74 450.45 L 376.74 442.26" fill="#725d0d"/><path d="M 360.36 450.45 A 8.19 8.19 0 0 1 368.55 458.64 L 360.36 458.64" fill="#79620c"/><path d="M 368.55 458.64 A 8.19 8.19 0 0 1  376.74 450.45 L 376.74 458.64" fill="#212121"/><rect x="442.26" y="442.26" width="16.38" height="16.38" fill="#6d590d"/><rect x="524.1600000000001" y="442.26" width="16.379999999999995" height="16.379999999999995" fill="#111111"/><path d="M 524.16 442.26 A 8.19 8.19 0 0 1 532.35 450.45 L 524.16 450.45" fill="#222222"/><path d="M 532.35 450.45 A 8.19 8.19 0 0 1  540.5400000000001 442.26 L 540.5400000000001 450.45" fill="#1e1e1e"/><path d="M 524.16 458.64 A 8.19 8.19 0 0 0 532.35 450.45 L 524.16 450.45" fill="#1d1d1d"/><path d="M 532.35 450.45 A 8.19 8.19 0 0 0 540.5400000000001 458.64 L 540.5400000000001 450.45" fill="#252110"/><rect x="606.0600000000001" y="442.26" width="16.379999999999995" height="16.379999999999995" fill="#111111"/><path d="M 606.06 442.26 A 8.19 8.19 0 0 1 614.25 450.45 L 606.06 450.45" fill="#171717"/><path d="M 614.25 450.45 A 8.19 8.19 0 0 1  622.44 442.26 L 622.44 450.45" fill="#4d400e"/><path d="M 606.06 458.64 A 8.19 8.19 0 0 0 614.25 450.45 L 606.06 450.45" fill="#62500d"/><path d="M 614.25 450.45 A 8.19 8.19 0 0 0 622.44 458.64 L 622.44 450.45" fill="#212121"/><rect x="687.96" y="442.26" width="16.379999999999995" height="16.379999999999995" fill="#111111"/><polygon points="696.1500000000001,442.26 696.1500000000001,450.45 687.96,450.45" fill="#6c580d"/><polygon points="696.15,442.26 704.34,442.26 696.15,450.45" fill="#39300f"/><polygon points="687.96,450.45 696.1500000000001,450.45 696.1500000000001,458.64" fill="#121212"/><polygon points="696.15,450.45 704.34,458.64 696.15,458.64" fill="#1d1d1d"/><rect x="769.86" y="442.26" width="16.379999999999995" height="16.379999999999995" fill="#111111"/><circle cx="773.955" cy="446.355" r="4.095" fill="#181818"/><rect x="778.05" y="442.26" width="8.19" height="8.19" fill="#312a10"/><circle cx="773.955" cy="454.545" r="4.095" fill="#241f10"/><rect x="778.05" y="450.45" width="8.19" height="8.19" fill="#141414"/><path d="M 851.76 442.26 A 16.38 16.38 0 0 1 868.14 458.64 L 851.76 458.64" fill="#141414"/><rect x="933.66" y="442.26" width="16.38" height="16.38" fill="#212121"/><path d="M 1015.56 458.64 A 16.38 16.38 0 0 0 1031.94 442.26 L 1015.56 442.26" fill="#4d400e"/><path d="M 1097.46 442.26 A 16.38 16.38 0 0 0 1113.8400000000001 458.64 L 1113.8400000000001 442.26" fill="#483c0e"/><rect x="1179.3600000000001" y="442.26" width="16.379999999999995" height="16.379999999999995" fill="#111111"/><polygon points="1187.55,442.26 1187.55,450.45 1179.36,450.45" fill="#1e1b10"/><polygon points="1187.55,442.26 1195.74,450.45 1187.55,450.45" fill="#312a10"/><polygon points="1179.36,450.45 1187.55,450.45 1179.36,458.64" fill="#161616"/><polygon points="1187.55,450.45 1195.74,450.45 1195.74,458.64" fill="#4e400e"/><rect x="1261.26" y="442.26" width="16.379999999999995" height="16.379999999999995" fill="#111111"/><polygon points="1269.45,442.26 1269.45,450.45 1261.26,450.45" fill="#64520d"/><polygon points="1269.45,442.26 1277.64,442.26 1269.45,450.45" fill="#614f0d"/><polygon points="1261.26,450.45 1269.45,450.45 1269.45,458.64" fill="#76600c"/><polygon points="1269.45,450.45 1277.64,458.64 1269.45,458.64" fill="#151515"/><path d="M 32.76 524.16 A 16.38 16.38 0 0 0 49.14 540.54 L 49.14 524.16" fill="#1a1811"/><path d="M 114.66 524.16 A 16.38 16.38 0 0 0 131.04 540.54 L 131.04 524.16" fill="#1d1d1d"/><polygon points="196.56,524.16 212.94,524.16 212.94,540.54" fill="#191919"/><polygon points="294.84,524.16 294.84,540.54 278.46,540.54" fill="#131313"/><rect x="360.36" y="524.1600000000001" width="16.379999999999995" height="16.379999999999995" fill="#111111"/><path d="M 360.36 524.16 A 8.19 8.19 0 0 1 368.55 532.35 L 360.36 532.35" fill="#1d1d1d"/><path d="M 368.55 532.35 A 8.19 8.19 0 0 1  376.74 524.16 L 376.74 532.35" fill="#121212"/><path d="M 360.36 540.5400000000001 A 8.19 8.19 0 0 0 368.55 532.35 L 360.36 532.35" fill="#212121"/><path d="M 368.55 532.35 A 8.19 8.19 0 0 0 376.74 540.5400000000001 L 376.74 532.35" fill="#292410"/><rect x="442.26" y="524.1600000000001" width="16.379999999999995" height="16.379999999999995" fill="#111111"/><polygon points="450.45,524.16 450.45,532.35 442.26,532.35" fill="#39300f"/><polygon points="450.45,524.16 458.64,532.35 450.45,532.35" fill="#38300f"/><polygon points="442.26,532.35 450.45,532.35 442.26,540.5400000000001" fill="#1e1e1e"/><polygon points="450.45,532.35 458.64,532.35 458.64,540.5400000000001" fill="#161511"/><rect x="524.1600000000001" y="524.1600000000001" width="16.379999999999995" height="16.379999999999995" fill="#111111"/><path d="M 524.16 532.35 A 8.19 8.19 0 0 1 532.35 524.16 L 532.35 526.2075 A 6.1425 6.1425 0 0 0 526.2075 532.35" fill="#141311"/><path d="M 532.35 524.16 A 8.19 8.19 0 0 1 540.5400000000001 532.35 L 538.4925000000001 532.35 A 6.1425 6.1425 0 0 0 532.35 526.2075" fill="#151515"/><path d="M 524.16 532.35 A 8.19 8.19 0 0 0 532.35 540.5400000000001 L 532.35 538.4925000000001 A 6.1425 6.1425 0 0 1 526.2075 532.35" fill="#2a2510"/><path d="M 532.35 540.5400000000001 A 8.19 8.19 0 0 0 540.5400000000001 532.35 L 538.4925000000001 532.35 A 6.1425 6.1425 0 0 1 532.35 538.4925000000001" fill="#151515"/><rect x="606.0600000000001" y="524.1600000000001" width="16.379999999999995" height="16.379999999999995" fill="#111111"/><path d="M 606.06 532.35 A 8.19 8.19 0 0 1 614.25 524.16 L 614.25 526.2075 A 6.1425 6.1425 0 0 0 608.1075 532.35" fill="#52440e"/><path d="M 614.25 524.16 A 8.19 8.19 0 0 1 622.44 532.35 L 620.3925 532.35 A 6.1425 6.1425 0 0 0 614.25 526.2075" fill="#5e4d0d"/><path d="M 606.06 532.35 A 8.19 8.19 0 0 0 614.25 540.5400000000001 L 614.25 538.4925000000001 A 6.1425 6.1425 0 0 1 608.1075 532.35" fill="#4d400e"/><path d="M 614.25 540.5400000000001 A 8.19 8.19 0 0 0 622.44 532.35 L 620.3925 532.35 A 6.1425 6.1425 0 0 1 614.25 538.4925000000001" fill="#312a10"/><polygon points="687.96,524.16 704.34,524.16 704.34,540.54" fill="#57480e"/><path d="M 769.86 540.54 A 16.38 16.38 0 0 1  786.24 524.16 L 786.24 540.54" fill="#1c1c1c"/><polygon points="851.76,524.16 868.14,524.16 868.14,540.54" fill="#1d1d1d"/><rect x="933.6600000000001" y="524.1600000000001" width="16.379999999999995" height="16.379999999999995" fill="#111111"/><polygon points="941.85,524.16 941.85,532.35 933.66,532.35" fill="#78610c"/><polygon points="941.85,524.16 950.0400000000001,524.16 941.85,532.35" fill="#1f1f1f"/><polygon points="933.66,532.35 941.85,532.35 941.85,540.5400000000001" fill="#7a630c"/><polygon points="941.85,532.35 950.0400000000001,540.5400000000001 941.85,540.5400000000001" fill="#151411"/><rect x="1015.5600000000001" y="524.1600000000001" width="16.379999999999995" height="16.379999999999995" fill="#111111"/><path d="M 1015.56 524.16 A 8.19 8.19 0 0 0 1023.75 532.35 L 1023.75 524.16" fill="#4e400e"/><path d="M 1023.75 532.35 A 8.19 8.19 0 0 0 1031.94 524.16 L 1023.75 524.16" fill="#231f10"/><path d="M 1015.56 540.5400000000001 A 8.19 8.19 0 0 1  1023.75 532.35 L 1023.75 540.5400000000001" fill="#50420e"/><path d="M 1023.75 532.35 A 8.19 8.19 0 0 1 1031.94 540.5400000000001 L 1023.75 540.5400000000001" fill="#65520d"/><rect x="1097.46" y="524.1600000000001" width="16.379999999999995" height="16.379999999999995" fill="#111111"/><path d="M 1097.46 532.35 A 8.19 8.19 0 0 1 1105.65 524.16 L 1105.65 526.2075 A 6.1425 6.1425 0 0 0 1099.5075 532.35" fill="#292410"/><path d="M 1105.65 524.16 A 8.19 8.19 0 0 1 1113.8400000000001 532.35 L 1111.7925 532.35 A 6.1425 6.1425 0 0 0 1105.65 526.2075" fill="#3c330f"/><path d="M 1097.46 532.35 A 8.19 8.19 0 0 0 1105.65 540.5400000000001 L 1105.65 538.4925000000001 A 6.1425 6.1425 0 0 1 1099.5075 532.35" fill="#483c0e"/><path d="M 1105.65 540.5400000000001 A 8.19 8.19 0 0 0 1113.8400000000001 532.35 L 1111.7925 532.35 A 6.1425 6.1425 0 0 1 1105.65 538.4925000000001" fill="#131313"/><rect x="1179.36" y="524.16" width="16.38" height="16.38" fill="#332b0f"/><path d="M 1261.26 524.16 A 16.38 16.38 0 0 1  1277.64 540.54 L 1261.26 524.16 A 16.38 16.38 0 0 0 1277.64 540.54" fill="#151515"/><rect x="32.760000000000005" y="606.0600000000001" width="16.379999999999995" height="16.379999999999995" fill="#111111"/><polygon points="40.949999999999996,606.06 40.949999999999996,614.25 32.76,614.25" fill="#1c1a10"/><polygon points="40.95,606.06 49.14,614.25 40.95,614.25" fill="#222222"/><polygon points="32.76,614.25 40.949999999999996,614.25 32.76,622.44" fill="#1e1e1e"/><polygon points="40.95,614.25 49.14,614.25 49.14,622.44" fill="#312a10"/><rect x="114.66000000000001" y="606.0600000000001" width="16.379999999999995" height="16.379999999999995" fill="#111111"/><path d="M 114.66 606.06 A 8.19 8.19 0 0 1 122.85 614.25 L 114.66 614.25" fill="#191919"/><path d="M 122.85 614.25 A 8.19 8.19 0 0 1  131.04 606.06 L 131.04 614.25" fill="#6a570d"/><path d="M 114.66 622.44 A 8.19 8.19 0 0 0 122.85 614.25 L 114.66 614.25" fill="#131313"/><path d="M 122.85 614.25 A 8.19 8.19 0 0 0 131.04 622.44 L 131.04 614.25" fill="#1a1a1a"/><rect x="196.56" y="606.06" width="16.38" height="16.38" fill="#715c0d"/><path d="M 278.46 622.4399999999999 A 16.38 16.38 0 0 0 294.84 606.06 L 278.46 606.06" fill="#1e1e1e"/><rect x="360.36" y="606.0600000000001" width="16.379999999999995" height="16.379999999999995" fill="#111111"/><polygon points="368.55,606.06 368.55,614.25 360.36,614.25" fill="#161616"/><polygon points="368.55,606.06 376.74,614.25 368.55,614.25" fill="#1e1e1e"/><polygon points="360.36,614.25 368.55,614.25 368.55,622.44" fill="#43380f"/><polygon points="368.55,614.25 376.74,614.25 368.55,622.44" fill="#141414"/><rect x="442.26" y="606.0600000000001" width="16.379999999999995" height="16.379999999999995" fill="#111111"/><path d="M 442.26 606.06 A 8.19 8.19 0 0 1 450.45 614.25 L 442.26 614.25" fill="#1b1b1b"/><path d="M 450.45 614.25 A 8.19 8.19 0 0 1  458.64 606.06 L 458.64 614.25" fill="#2e2710"/><path d="M 442.26 622.44 A 8.19 8.19 0 0 0 450.45 614.25 L 442.26 614.25" fill="#57470e"/><path d="M 450.45 614.25 A 8.19 8.19 0 0 0 458.64 622.44 L 458.64 614.25" fill="#202020"/><rect x="524.1600000000001" y="606.0600000000001" width="16.379999999999995" height="16.379999999999995" fill="#111111"/><path d="M 524.16 606.06 A 8.19 8.19 0 0 0 532.35 614.25 L 532.35 606.06" fill="#252010"/><path d="M 532.35 614.25 A 8.19 8.19 0 0 0 540.5400000000001 606.06 L 532.35 606.06" fill="#191919"/><path d="M 524.16 622.44 A 8.19 8.19 0 0 1  532.35 614.25 L 532.35 622.44" fill="#262110"/><path d="M 532.35 614.25 A 8.19 8.19 0 0 1 540.5400000000001 622.44 L 532.35 622.44" fill="#1d1a10"/><polygon points="606.06,606.06 622.4399999999999,622.4399999999999 606.06,622.4399999999999" fill="#473b0f"/><rect x="687.96" y="606.0600000000001" width="16.379999999999995" height="16.379999999999995" fill="#111111"/><polygon points="696.1500000000001,606.06 696.1500000000001,614.25 687.96,614.25" fill="#3a310f"/><polygon points="696.15,606.06 704.34,606.06 696.15,614.25" fill="#372e0f"/><polygon points="687.96,614.25 696.1500000000001,614.25 696.1500000000001,622.44" fill="#131313"/><polygon points="696.15,614.25 704.34,622.44 696.15,622.44" fill="#604e0d"/><rect x="769.86" y="606.0600000000001" width="16.379999999999995" height="16.379999999999995" fill="#111111"/><path d="M 769.86 614.25 A 8.19 8.19 0 0 1 778.0500000000001 606.06 L 778.0500000000001 608.1075 A 6.1425 6.1425 0 0 0 771.9075 614.25" fill="#161616"/><path d="M 778.05 606.06 A 8.19 8.19 0 0 1 786.24 614.25 L 784.1925 614.25 A 6.1425 6.1425 0 0 0 778.05 608.1075" fill="#181818"/><path d="M 769.86 614.25 A 8.19 8.19 0 0 0 778.0500000000001 622.44 L 778.0500000000001 620.3925 A 6.1425 6.1425 0 0 1 771.9075 614.25" fill="#1b1b1b"/><path d="M 778.05 622.44 A 8.19 8.19 0 0 0 786.24 614.25 L 784.1925 614.25 A 6.1425 6.1425 0 0 1 778.05 620.3925" fill="#161616"/><rect x="851.76" y="606.0600000000001" width="16.379999999999995" height="16.379999999999995" fill="#111111"/><polygon points="859.95,606.06 859.95,614.25 851.76,614.25" fill="#191919"/><polygon points="859.95,606.06 868.1400000000001,614.25 859.95,614.25" fill="#4b3e0e"/><polygon points="851.76,614.25 859.95,614.25 851.76,622.44" fill="#352d0f"/><polygon points="859.95,614.25 868.1400000000001,614.25 868.1400000000001,622.44" fill="#473b0f"/><path d="M 933.66 606.06 A 16.38 16.38 0 0 1 950.04 622.4399999999999 L 933.66 622.4399999999999" fill="#6a570d"/><rect x="1015.5600000000001" y="606.0600000000001" width="16.379999999999995" height="16.379999999999995" fill="#111111"/><path d="M 1015.56 614.25 A 8.19 8.19 0 0 0 1023.75 606.06 L 1015.56 606.06" fill="#151515"/><path d="M 1023.75 606.06 A 8.19 8.19 0 0 0 1031.94 614.25 L 1031.94 606.06" fill="#5d4c0e"/><path d="M 1015.56 614.25 A 8.19 8.19 0 0 1 1023.75 622.44 L 1015.56 622.44" fill="#705b0d"/><path d="M 1023.75 622.44 A 8.19 8.19 0 0 1  1031.94 614.25 L 1031.94 622.44" fill="#141414"/><path d="M 1097.46 606.06 A 16.38 16.38 0 0 0 1113.8400000000001 622.4399999999999 L 1113.8400000000001 606.06" fill="#171717"/><path d="M 1179.36 606.06 A 16.38 16.38 0 0 1 1195.74 622.4399999999999 L 1179.36 622.4399999999999" fill="#161616"/><rect x="1261.26" y="606.0600000000001" width="16.379999999999995" height="16.379999999999995" fill="#111111"/><polygon points="1269.45,606.06 1269.45,614.25 1261.26,614.25" fill="#181818"/><polygon points="1269.45,606.06 1277.64,614.25 1269.45,614.25" fill="#1c1c1c"/><polygon points="1261.26,614.25 1269.45,614.25 1269.45,622.44" fill="#212121"/><polygon points="1269.45,614.25 1277.64,614.25 1269.45,622.44" fill="#212121"/><polygon points="32.76,687.96 49.14,704.34 32.76,704.34" fill="#181611"/><polygon points="131.04,687.96 131.04,704.34 114.66,704.34" fill="#63510d"/><polygon points="212.94,687.96 212.94,704.34 196.56,704.34" fill="#292410"/><rect x="278.46" y="687.96" width="16.38" height="16.38" fill="#463a0f"/><rect x="360.36" y="687.96" width="16.379999999999995" height="16.379999999999995" fill="#111111"/><polygon points="368.55,687.96 368.55,696.1500000000001 360.36,696.1500000000001" fill="#161616"/><polygon points="368.55,687.96 376.74,687.96 368.55,696.1500000000001" fill="#211e10"/><polygon points="360.36,696.15 368.55,696.15 368.55,704.34" fill="#181818"/><polygon points="368.55,696.15 376.74,704.34 368.55,704.34" fill="#5a4a0e"/><rect x="442.26" y="687.96" width="16.379999999999995" height="16.379999999999995" fill="#111111"/><polygon points="450.45,687.96 450.45,696.1500000000001 442.26,696.1500000000001" fill="#6a560d"/><polygon points="450.45,687.96 458.64,696.1500000000001 450.45,696.1500000000001" fill="#1a1a1a"/><polygon points="442.26,696.15 450.45,696.15 442.26,704.34" fill="#7a630c"/><polygon points="450.45,696.15 458.64,696.15 458.64,704.34" fill="#2a2510"/><rect x="524.1600000000001" y="687.96" width="16.379999999999995" height="16.379999999999995" fill="#111111"/><polygon points="532.35,687.96 532.35,696.1500000000001 524.16,696.1500000000001" fill="#58480e"/><polygon points="532.35,687.96 540.5400000000001,696.1500000000001 532.35,696.1500000000001" fill="#191919"/><polygon points="524.16,696.15 532.35,696.15 532.35,704.34" fill="#7b630c"/><polygon points="532.35,696.15 540.5400000000001,696.15 532.35,704.34" fill="#4a3e0e"/><polygon points="622.4399999999999,687.96 622.4399999999999,704.34 606.06,704.34" fill="#292410"/><polygon points="704.34,687.96 704.34,704.34 687.96,704.34" fill="#1e1b10"/><rect x="769.86" y="687.96" width="16.379999999999995" height="16.379999999999995" fill="#111111"/><polygon points="778.0500000000001,687.96 778.0500000000001,696.1500000000001 769.86,696.1500000000001" fill="#3f350f"/><polygon points="778.05,687.96 786.24,687.96 778.05,696.1500000000001" fill="#3b320f"/><polygon points="769.86,696.15 778.0500000000001,696.15 778.0500000000001,704.34" fill="#1d1d1d"/><polygon points="778.05,696.15 786.24,704.34 778.05,704.34" fill="#151515"/><rect x="851.76" y="687.96" width="16.379999999999995" height="16.379999999999995" fill="#111111"/><polygon points="859.95,687.96 859.95,696.1500000000001 851.76,696.1500000000001" fill="#51430e"/><polygon points="859.95,687.96 868.1400000000001,696.1500000000001 859.95,696.1500000000001" fill="#191919"/><polygon points="851.76,696.15 859.95,696.15 859.95,704.34" fill="#755f0c"/><polygon points="859.95,696.15 868.1400000000001,696.15 859.95,704.34" fill="#483c0e"/><polygon points="950.04,687.96 950.04,704.34 933.66,704.34" fill="#4a3d0e"/><path d="M 1015.56 704.34 A 16.38 16.38 0 0 1  1031.94 687.96 L 1031.94 704.34" fill="#171611"/><rect x="1097.46" y="687.96" width="16.379999999999995" height="16.379999999999995" fill="#111111"/><path d="M 1097.46 687.96 A 8.19 8.19 0 0 0 1105.65 696.1500000000001 L 1105.65 687.96" fill="#3b320f"/><path d="M 1105.65 696.1500000000001 A 8.19 8.19 0 0 0 1113.8400000000001 687.96 L 1105.65 687.96" fill="#212121"/><path d="M 1097.46 704.34 A 8.19 8.19 0 0 1  1105.65 696.15 L 1105.65 704.34" fill="#1d1d1d"/><path d="M 1105.65 696.15 A 8.19 8.19 0 0 1 1113.8400000000001 704.34 L 1105.65 704.34" fill="#79620c"/><polygon points="1179.36,687.96 1195.74,704.34 1179.36,704.34" fill="#1e1e1e"/><rect x="1261.26" y="687.96" width="16.379999999999995" height="16.379999999999995" fill="#111111"/><circle cx="1265.355" cy="692.0550000000001" r="4.095" fill="#1b1b1b"/><rect x="1269.45" y="687.96" width="8.19" height="8.19" fill="#202020"/><circle cx="1265.355" cy="700.245" r="4.095" fill="#212121"/><rect x="1269.45" y="696.15" width="8.19" height="8.19" fill="#453a0f"/><rect x="32.760000000000005" y="769.86" width="16.379999999999995" height="16.379999999999995" fill="#111111"/><path d="M 32.76 769.86 A 8.19 8.19 0 0 0 40.949999999999996 778.0500000000001 L 40.949999999999996 769.86" fill="#2a2410"/><path d="M 40.95 778.0500000000001 A 8.19 8.19 0 0 0 49.14 769.86 L 40.95 769.86" fill="#121212"/><path d="M 32.76 786.24 A 8.19 8.19 0 0 1  40.949999999999996 778.05 L 40.949999999999996 786.24" fill="#1c1c1c"/><path d="M 40.95 778.05 A 8.19 8.19 0 0 1 49.14 786.24 L 40.95 786.24" fill="#7d650c"/><rect x="114.66000000000001" y="769.86" width="16.379999999999995" height="16.379999999999995" fill="#111111"/><polygon points="122.85,769.86 122.85,778.0500000000001 114.66,778.0500000000001" fill="#352d0f"/><polygon points="122.85,769.86 131.04,778.0500000000001 122.85,778.0500000000001" fill="#161616"/><polygon points="114.66,778.05 122.85,778.05 114.66,786.24" fill="#1f1f1f"/><polygon points="122.85,778.05 131.04,778.05 131.04,786.24" fill="#1a1a1a"/><rect x="196.56" y="769.86" width="16.38" height="16.38" fill="#262110"/><rect x="278.46000000000004" y="769.86" width="16.379999999999995" height="16.379999999999995" fill="#111111"/><polygon points="286.65,769.86 286.65,778.0500000000001 278.46,778.0500000000001" fill="#322b0f"/><polygon points="286.65,769.86 294.84,778.0500000000001 286.65,778.0500000000001" fill="#52430e"/><polygon points="278.46,778.05 286.65,778.05 286.65,786.24" fill="#141414"/><polygon points="286.65,778.05 294.84,778.05 286.65,786.24" fill="#6f5a0d"/><rect x="360.36" y="769.86" width="16.38" height="16.38" fill="#121212"/><rect x="442.26" y="769.86" width="16.38" height="16.38" fill="#191711"/><rect x="524.1600000000001" y="769.86" width="16.379999999999995" height="16.379999999999995" fill="#111111"/><path d="M 524.16 778.0500000000001 A 8.19 8.19 0 0 1 532.35 769.86 L 532.35 771.9075 A 6.1425 6.1425 0 0 0 526.2075 778.0500000000001" fill="#2b2510"/><path d="M 532.35 769.86 A 8.19 8.19 0 0 1 540.5400000000001 778.0500000000001 L 538.4925000000001 778.0500000000001 A 6.1425 6.1425 0 0 0 532.35 771.9075" fill="#202020"/><path d="M 524.16 778.05 A 8.19 8.19 0 0 0 532.35 786.24 L 532.35 784.1925 A 6.1425 6.1425 0 0 1 526.2075 778.05" fill="#1f1f1f"/><path d="M 532.35 786.24 A 8.19 8.19 0 0 0 540.5400000000001 778.05 L 538.4925000000001 778.05 A 6.1425 6.1425 0 0 1 532.35 784.1925" fill="#212121"/><polygon points="622.4399999999999,769.86 622.4399999999999,786.24 606.06,786.24" fill="#1a1a1a"/><rect x="687.96" y="769.86" width="16.379999999999995" height="16.379999999999995" fill="#111111"/><path d="M 687.96 778.0500000000001 A 8.19 8.19 0 0 0 696.1500000000001 769.86 L 687.96 769.86" fill="#473b0f"/><path d="M 696.15 769.86 A 8.19 8.19 0 0 0 704.34 778.0500000000001 L 704.34 769.86" fill="#69560d"/><path d="M 687.96 778.05 A 8.19 8.19 0 0 1 696.1500000000001 786.24 L 687.96 786.24" fill="#161616"/><path d="M 696.15 786.24 A 8.19 8.19 0 0 1  704.34 778.05 L 704.34 786.24" fill="#6a560d"/><path d="M 769.86 786.24 A 16.38 16.38 0 0 0 786.24 769.86 L 769.86 769.86" fill="#1e1e1e"/><rect x="851.76" y="769.86" width="16.379999999999995" height="16.379999999999995" fill="#111111"/><polygon points="859.95,769.86 859.95,778.0500000000001 851.76,778.0500000000001" fill="#181818"/><polygon points="859.95,769.86 868.1400000000001,778.0500000000001 859.95,778.0500000000001" fill="#40350f"/><polygon points="851.76,778.05 859.95,778.05 859.95,786.24" fill="#131313"/><polygon points="859.95,778.05 868.1400000000001,778.05 859.95,786.24" fill="#2c2610"/><polygon points="933.66,769.86 950.04,786.24 933.66,786.24" fill="#181818"/><path d="M 1015.56 786.24 A 16.38 16.38 0 0 0 1031.94 769.86 L 1015.56 769.86" fill="#3d330f"/><path d="M 1097.46 769.86 A 16.38 16.38 0 0 1 1113.8400000000001 786.24 L 1097.46 786.24" fill="#3a310f"/><rect x="1179.3600000000001" y="769.86" width="16.379999999999995" height="16.379999999999995" fill="#111111"/><polygon points="1187.55,769.86 1187.55,778.0500000000001 1179.36,778.0500000000001" fill="#1c1c1c"/><polygon points="1187.55,769.86 1195.74,778.0500000000001 1187.55,778.0500000000001" fill="#382f0f"/><polygon points="1179.36,778.05 1187.55,778.05 1179.36,786.24" fill="#191919"/><polygon points="1187.55,778.05 1195.74,778.05 1195.74,786.24" fill="#65520d"/><rect x="1261.26" y="769.86" width="16.379999999999995" height="16.379999999999995" fill="#111111"/><polygon points="1269.45,769.86 1269.45,778.0500000000001 1261.26,778.0500000000001" fill="#121212"/><polygon points="1269.45,769.86 1277.64,778.0500000000001 1269.45,778.0500000000001" fill="#151515"/><polygon points="1261.26,778.05 1269.45,778.05 1269.45,786.24" fill="#68550d"/><polygon points="1269.45,778.05 1277.64,778.05 1269.45,786.24" fill="#2d2710"/></g></svg>