<?xml version="1.0" standalone="no"?><svg xmlns:xlink="http://www.w3.org/1999/xlink" xmlns="http://www.w3.org/2000/svg" viewBox="0 0 1000 625.0047695724173" preserveAspectRatio="xMaxYMax slice"><g transform="scale(0.7631315867795083)"><rect x="0" y="0" width="1310.4" height="819" fill="#111111"/><g transform="translate(675.68,102.38) scale(2.0475000000000003) rotate(0)"><path d="M19.9981 0.00193429L3.72652 -7.68637e-07L8.4784 4.75382L0 13.2345L6.76585 20L15.2462 11.5208L20 16.2746L19.9981 0.00193429Z" fill="#2e2810"/></g><g transform="translate(1085.18,102.38) scale(2.0475000000000003) rotate(0)"><path d="M19.9981 0.00193429L3.72652 -7.68637e-07L8.4784 4.75382L0 13.2345L6.76585 20L15.2462 11.5208L20 16.2746L19.9981 0.00193429Z" fill="#161616"/></g><g transform="translate(184.28,184.28) scale(2.0475000000000003) rotate(0)"><path d="M19.9981 0.00193429L3.72652 -7.68637e-07L8.4784 4.75382L0 13.2345L6.76585 20L15.2462 11.5208L20 16.2746L19.9981 0.00193429Z" fill="#1e1e1e"/></g><g transform="translate(266.18,184.28) scale(2.0475000000000003) rotate(0)"><path d="M19.9981 0.00193429L3.72652 -7.68637e-07L8.4784 4.75382L0 13.2345L6.76585 20L15.2462 11.5208L20 16.2746L19.9981 0.00193429Z" fill="#4c3f0e"/></g><g transform="translate(348.08,184.28) scale(2.0475000000000003) rotate(0)"><path d="M19.9981 0.00193429L3.72652 -7.68637e-07L8.4784 4.75382L0 13.2345L6.76585 20L15.2462 11.5208L20 16.2746L19.9981 0.00193429Z" fill="#151515"/></g><g transform="translate(429.98,184.28) scale(2.0475000000000003) rotate(0)"><path d="M19.9981 0.00193429L3.72652 -7.68637e-07L8.4784 4.75382L0 13.2345L6.76585 20L15.2462 11.5208L20 16.2746L19.9981 0.00193429Z" fill="#7c640c"/></g><g transform="translate(675.68,184.28) scale(2.0475000000000003) rotate(0)"><path d="M19.9981 0.00193429L3.72652 -7.68637e-07L8.4784 4.75382L0 13.2345L6.76585 20L15.2462 11.5208L20 16.2746L19.9981 0.00193429Z" fill="#202020"/></g><g transform="translate(757.58,184.28) scale(2.0475000000000003) rotate(0)"><path d="M19.9981 0.00193429L3.72652 -7.68637e-07L8.4784 4.75382L0 13.2345L6.76585 20L15.2462 11.5208L20 16.2746L19.9981 0.00193429Z" fill="#111111"/></g><g transform="translate(839.48,184.28) scale(2.0475000000000003) rotate(0)"><path d="M19.9981 0.00193429L3.72652 -7.68637e-07L8.4784 4.75382L0 13.2345L6.76585 20L15.2462 11.5208L20 16.2746L19.9981 0.00193429Z" fill="#161616"/></g><g transform="translate(1167.08,184.28) scale(2.0475000000000003) rotate(0)"><path d="M19.9981 0.00193429L3.72652 -7.68637e-07L8.4784 4.75382L0 13.2345L6.76585 20L15.2462 11.5208L20 16.2746L19.9981 0.00193429Z" fill="#54450e"/></g><g transform="translate(348.08,266.18) scale(2.0475000000000003) rotate(0)"><path d="M19.9981 0.00193429L3.72652 -7.68637e-07L8.4784 4.75382L0 13.2345L6.76585 20L15.2462 11.5208L20 16.2746L19.9981 0.00193429Z" fill="#76600c"/></g><g transform="translate(429.98,266.18) scale(2.0475000000000003) rotate(0)"><path d="M19.9981 0.00193429L3.72652 -7.68637e-07L8.4784 4.75382L0 13.2345L6.76585 20L15.2462 11.5208L20 16.2746L19.9981 0.00193429Z" fill="#191919"/></g><g transform="translate(511.88,266.18) scale(2.0475000000000003) rotate(0)"><path d="M19.9981 0.00193429L3.72652 -7.68637e-07L8.4784 4.75382L0 13.2345L6.76585 20L15.2462 11.5208L20 16.2746L19.9981 0.00193429Z" fill="#191919"/></g><g transform="translate(593.78,266.18) scale(2.0475000000000003) rotate(0)"><path d="M19.9981 0.00193429L3.72652 -7.68637e-07L8.4784 4.75382L0 13.2345L6.76585 20L15.2462 11.5208L20 16.2746L19.9981 0.00193429Z" fill="#3b320f"/></g><g transform="translate(675.68,266.18) scale(2.0475000000000003) rotate(0)"><path d="M19.9981 0.00193429L3.72652 -7.68637e-07L8.4784 4.75382L0 13.2345L6.76585 20L15.2462 11.5208L20 16.2746L19.9981 0.00193429Z" fill="#322b0f"/></g><g transform="translate(757.58,266.18) scale(2.0475000000000003) rotate(0)"><path d="M19.9981 0.00193429L3.72652 -7.68637e-07L8.4784 4.75382L0 13.2345L6.76585 20L15.2462 11.5208L20 16.2746L19.9981 0.00193429Z" fill="#1f1f1f"/></g><g transform="translate(921.38,266.18) scale(2.0475000000000003) rotate(0)"><path d="M19.9981 0.00193429L3.72652 -7.68637e-07L8.4784 4.75382L0 13.2345L6.76585 20L15.2462 11.5208L20 16.2746L19.9981 0.00193429Z" fill="#161616"/></g><g transform="translate(1167.08,266.18) scale(2.0475000000000003) rotate(0)"><path d="M19.9981 0.00193429L3.72652 -7.68637e-07L8.4784 4.75382L0 13.2345L6.76585 20L15.2462 11.5208L20 16.2746L19.9981 0.00193429Z" fill="#604e0d"/></g><g transform="translate(102.38,348.08) scale(2.0475000000000003) rotate(0)"><path d="M19.9981 0.00193429L3.72652 -7.68637e-07L8.4784 4.75382L0 13.2345L6.76585 20L15.2462 11.5208L20 16.2746L19.9981 0.00193429Z" fill="#3e340f"/></g><g transform="translate(266.18,348.08) scale(2.0475000000000003) rotate(0)"><path d="M19.9981 0.00193429L3.72652 -7.68637e-07L8.4784 4.75382L0 13.2345L6.76585 20L15.2462 11.5208L20 16.2746L19.9981 0.00193429Z" fill="#222222"/></g><g transform="translate(511.88,348.08) scale(2.0475000000000003) rotate(0)"><path d="M19.9981 0.00193429L3.72652 -7.68637e-07L8.4784 4.75382L0 13.2345L6.76585 20L15.2462 11.5208L20 16.2746L19.9981 0.00193429Z" fill="#252110"/></g><g transform="translate(593.78,348.08) scale(2.0475000000000003) rotate(0)"><path d="M19.9981 0.00193429L3.72652 -7.68637e-07L8.4784 4.75382L0 13.2345L6.76585 20L15.2462 11.5208L20 16.2746L19.9981 0.00193429Z" fill="#191919"/></g><g transform="translate(675.68,348.08) scale(2.0475000000000003) rotate(0)"><path d="M19.9981 0.00193429L3.72652 -7.68637e-07L8.4784 4.75382L0 13.2345L6.76585 20L15.2462 11.5208L20 16.2746L19.9981 0.00193429Z" fill="#171611"/></g><g transform="translate(757.58,348.08) scale(2.0475000000000003) rotate(0)"><path d="M19.9981 0.00193429L3.72652 -7.68637e-07L8.4784 4.75382L0 13.2345L6.76585 20L15.2462 11.5208L20 16.2746L19.9981 0.00193429Z" fill="#151515"/></g><g transform="translate(839.48,348.08) scale(2.0475000000000003) rotate(0)"><path d="M19.9981 0.00193429L3.72652 -7.68637e-07L8.4784 4.75382L0 13.2345L6.76585 20L15.2462 11.5208L20 16.2746L19.9981 0.00193429Z" fill="#1e1e1e"/></g><g transform="translate(921.38,348.08) scale(2.0475000000000003) rotate(0)"><path d="M19.9981 0.00193429L3.72652 -7.68637e-07L8.4784 4.75382L0 13.2345L6.76585 20L15.2462 11.5208L20 16.2746L19.9981 0.00193429Z" fill="#3e340f"/></g><g transform="translate(1085.18,348.08) scale(2.0475000000000003) rotate(0)"><path d="M19.9981 0.00193429L3.72652 -7.68637e-07L8.4784 4.75382L0 13.2345L6.76585 20L15.2462 11.5208L20 16.2746L19.9981 0.00193429Z" fill="#191711"/></g><g transform="translate(1167.08,348.08) scale(2.0475000000000003) rotate(0)"><path d="M19.9981 0.00193429L3.72652 -7.68637e-07L8.4784 4.75382L0 13.2345L6.76585 20L15.2462 11.5208L20 16.2746L19.9981 0.00193429Z" fill="#191919"/></g><g transform="translate(184.28,429.98) scale(2.0475000000000003) rotate(0)"><path d="M19.9981 0.00193429L3.72652 -7.68637e-07L8.4784 4.75382L0 13.2345L6.76585 20L15.2462 11.5208L20 16.2746L19.9981 0.00193429Z" fill="#2f2810"/></g><g transform="translate(348.08,429.98) scale(2.0475000000000003) rotate(0)"><path d="M19.9981 0.00193429L3.72652 -7.68637e-07L8.4784 4.75382L0 13.2345L6.76585 20L15.2462 11.5208L20 16.2746L19.9981 0.00193429Z" fill="#43380f"/></g><g transform="translate(429.98,429.98) scale(2.0475000000000003) rotate(0)"><path d="M19.9981 0.00193429L3.72652 -7.68637e-07L8.4784 4.75382L0 13.2345L6.76585 20L15.2462 11.5208L20 16.2746L19.9981 0.00193429Z" fill="#151515"/></g><g transform="translate(511.88,429.98) scale(2.0475000000000003) rotate(0)"><path d="M19.9981 0.00193429L3.72652 -7.68637e-07L8.4784 4.75382L0 13.2345L6.76585 20L15.2462 11.5208L20 16.2746L19.9981 0.00193429Z" fill="#3e340f"/></g><g transform="translate(593.78,429.98) scale(2.0475000000000003) rotate(0)"><path d="M19.9981 0.00193429L3.72652 -7.68637e-07L8.4784 4.75382L0 13.2345L6.76585 20L15.2462 11.5208L20 16.2746L19.9981 0.00193429Z" fill="#161616"/></g><g transform="translate(675.68,429.98) scale(2.0475000000000003) rotate(0)"><path d="M19.9981 0.00193429L3.72652 -7.68637e-07L8.4784 4.75382L0 13.2345L6.76585 20L15.2462 11.5208L20 16.2746L19.9981 0.00193429Z" fill="#181818"/></g><g transform="translate(757.58,429.98) scale(2.0475000000000003) rotate(0)"><path d="M19.9981 0.00193429L3.72652 -7.68637e-07L8.4784 4.75382L0 13.2345L6.76585 20L15.2462 11.5208L20 16.2746L19.9981 0.00193429Z" fill="#5d4c0e"/></g><g transform="translate(839.48,429.98) scale(2.0475000000000003) rotate(0)"><path d="M19.9981 0.00193429L3.72652 -7.68637e-07L8.4784 4.75382L0 13.2345L6.76585 20L15.2462 11.5208L20 16.2746L19.9981 0.00193429Z" fill="#111111"/></g><g transform="translate(921.38,429.98) scale(2.0475000000000003) rotate(0)"><path d="M19.9981 0.00193429L3.72652 -7.68637e-07L8.4784 4.75382L0 13.2345L6.76585 20L15.2462 11.5208L20 16.2746L19.9981 0.00193429Z" fill="#1b1b1b"/></g><g transform="translate(266.18,511.88) scale(2.0475000000000003) rotate(0)"><path d="M19.9981 0.00193429L3.72652 -7.68637e-07L8.4784 4.75382L0 13.2345L6.76585 20L15.2462 11.5208L20 16.2746L19.9981 0.00193429Z" fill="#483c0e"/></g><g transform="translate(348.08,511.88) scale(2.0475000000000003) rotate(0)"><path d="M19.9981 0.00193429L3.72652 -7.68637e-07L8.4784 4.75382L0 13.2345L6.76585 20L15.2462 11.5208L20 16.2746L19.9981 0.00193429Z" fill="#121212"/></g><g transform="translate(429.98,511.88) scale(2.0475000000000003) rotate(0)"><path d="M19.9981 0.00193429L3.72652 -7.68637e-07L8.4784 4.75382L0 13.2345L6.76585 20L15.2462 11.5208L20 16.2746L19.9981 0.00193429Z" fill="#3d340f"/></g><g transform="translate(593.78,511.88) scale(2.0475000000000003) rotate(0)"><path d="M19.9981 0.00193429L3.72652 -7.68637e-07L8.4784 4.75382L0 13.2345L6.76585 20L15.2462 11.5208L20 16.2746L19.9981 0.00193429Z" fill="#181818"/></g><g transform="translate(675.68,511.88) scale(2.0475000000000003) rotate(0)"><path d="M19.9981 0.00193429L3.72652 -7.68637e-07L8.4784 4.75382L0 13.2345L6.76585 20L15.2462 11.5208L20 16.2746L19.9981 0.00193429Z" fill="#7c650c"/></g><g transform="translate(757.58,511.88) scale(2.0475000000000003) rotate(0)"><path d="M19.9981 0.00193429L3.72652 -7.68637e-07L8.4784 4.75382L0 13.2345L6.76585 20L15.2462 11.5208L20 16.2746L19.9981 0.00193429Z" fill="#212121"/></g><g transform="translate(839.48,511.88) scale(2.0475000000000003) rotate(0)"><path d="M19.9981 0.00193429L3.72652 -7.68637e-07L8.4784 4.75382L0 13.2345L6.76585 20L15.2462 11.5208L20 16.2746L19.9981 0.00193429Z" fill="#6f5a0d"/></g><g transform="translate(921.38,511.88) scale(2.0475000000000003) rotate(0)"><path d="M19.9981 0.00193429L3.72652 -7.68637e-07L8.4784 4.75382L0 13.2345L6.76585 20L15.2462 11.5208L20 16.2746L19.9981 0.00193429Z" fill="#1d1d1d"/></g><g transform="translate(1003.28,511.88) scale(2.0475000000000003) rotate(0)"><path d="M19.9981 0.00193429L3.72652 -7.68637e-07L8.4784 4.75382L0 13.2345L6.76585 20L15.2462 11.5208L20 16.2746L19.9981 0.00193429Z" fill="#69560d"/></g><g transform="translate(429.98,593.78) scale(2.0475000000000003) rotate(0)"><path d="M19.9981 0.00193429L3.72652 -7.68637e-07L8.4784 4.75382L0 13.2345L6.76585 20L15.2462 11.5208L20 16.2746L19.9981 0.00193429Z" fill="#5d4c0e"/></g><g transform="translate(511.88,593.78) scale(2.0475000000000003) rotate(0)"><path d="M19.9981 0.00193429L3.72652 -7.68637e-07L8.4784 4.75382L0 13.2345L6.76585 20L15.2462 11.5208L20 16.2746L19.9981 0.00193429Z" fill="#1e1e1e"/></g><g transform="translate(593.78,593.78) scale(2.0475000000000003) rotate(0)"><path d="M19.9981 0.00193429L3.72652 -7.68637e-07L8.4784 4.75382L0 13.2345L6.76585 20L15.2462 11.5208L20 16.2746L19.9981 0.00193429Z" fill="#141414"/></g><g transform="translate(675.68,593.78) scale(2.0475000000000003) rotate(0)"><path d="M19.9981 0.00193429L3.72652 -7.68637e-07L8.4784 4.75382L0 13.2345L6.76585 20L15.2462 11.5208L20 16.2746L19.9981 0.00193429Z" fill="#111111"/></g><g transform="translate(757.58,593.78) scale(2.0475000000000003) rotate(0)"><path d="M19.9981 0.00193429L3.72652 -7.68637e-07L8.4784 4.75382L0 13.2345L6.76585 20L15.2462 11.5208L20 16.2746L19.9981 0.00193429Z" fill="#191711"/></g><g transform="translate(921.38,593.78) scale(2.0475000000000003) rotate(0)"><path d="M19.9981 0.00193429L3.72652 -7.68637e-07L8.4784 4.75382L0 13.2345L6.76585 20L15.2462 11.5208L20 16.2746L19.9981 0.00193429Z" fill="#4e410e"/></g><g transform="translate(1003.28,593.78) scale(2.0475000000000003) rotate(0)"><path d="M19.9981 0.00193429L3.72652 -7.68637e-07L8.4784 4.75382L0 13.2345L6.76585 20L15.2462 11.5208L20 16.2746L19.9981 0.00193429Z" fill="#141414"/></g><g transform="translate(1085.18,593.78) scale(2.0475000000000003) rotate(0)"><path d="M19.9981 0.00193429L3.72652 -7.68637e-07L8.4784 4.75382L0 13.2345L6.76585 20L15.2462 11.5208L20 16.2746L19.9981 0.00193429Z" fill="#58480e"/></g><g transform="translate(429.98,675.68) scale(2.0475000000000003) rotate(0)"><path d="M19.9981 0.00193429L3.72652 -7.68637e-07L8.4784 4.75382L0 13.2345L6.76585 20L15.2462 11.5208L20 16.2746L19.9981 0.00193429Z" fill="#141414"/></g><g transform="translate(511.88,675.68) scale(2.0475000000000003) rotate(0)"><path d="M19.9981 0.00193429L3.72652 -7.68637e-07L8.4784 4.75382L0 13.2345L6.76585 20L15.2462 11.5208L20 16.2746L19.9981 0.00193429Z" fill="#111111"/></g><g transform="translate(675.68,675.68) scale(2.0475000000000003) rotate(0)"><path d="M19.9981 0.00193429L3.72652 -7.68637e-07L8.4784 4.75382L0 13.2345L6.76585 20L15.2462 11.5208L20 16.2746L19.9981 0.00193429Z" fill="#1c1c1c"/></g><g transform="translate(757.58,675.68) scale(2.0475000000000003) rotate(0)"><path d="M19.9981 0.00193429L3.72652 -7.68637e-07L8.4784 4.75382L0 13.2345L6.76585 20L15.2462 11.5208L20 16.2746L19.9981 0.00193429Z" fill="#1d1d1d"/></g><g transform="translate(839.48,675.68) scale(2.0475000000000003) rotate(0)"><path d="M19.9981 0.00193429L3.72652 -7.68637e-07L8.4784 4.75382L0 13.2345L6.76585 20L15.2462 11.5208L20 16.2746L19.9981 0.00193429Z" fill="#1b1b1b"/></g><g transform="translate(1085.18,675.68) scale(2.0475000000000003) rotate(0)"><path d="M19.9981 0.00193429L3.72652 -7.68637e-07L8.4784 4.75382L0 13.2345L6.76585 20L15.2462 11.5208L20 16.2746L19.9981 0.00193429Z" fill="#5e4d0d"/></g><g transform="translate(593.78,757.58) scale(2.0475000000000003) rotate(0)"><path d="M19.9981 0.00193429L3.72652 -7.68637e-07L8.4784 4.75382L0 13.2345L6.76585 20L15.2462 11.5208L20 16.2746L19.9981 0.00193429Z" fill="#7b640c"/></g><g transform="translate(1003.28,757.58) scale(2.0475000000000003) rotate(0)"><path d="M19.9981 0.00193429L3.72652 -7.68637e-07L8.4784 4.75382L0 13.2345L6.76585 20L15.2462 11.5208L20 16.2746L19.9981 0.00193429Z" fill="#6d590d"/></g><g transform="translate(1167.08,757.58) scale(2.0475000000000003) rotate(0)"><path d="M19.9981 0.00193429L3.72652 -7.68637e-07L8.4784 4.75382L0 13.2345L6.76585 20L15.2462 11.5208L20 16.2746L19.9981 0.00193429Z" fill="#1d1d1d"/></g></g></svg>